<svg xmlns="http://www.w3.org/2000/svg" viewBox="0 0 256 256">
  <defs>
    <linearGradient id="bgL" x1="0" y1="0" x2="0" y2="1">
      <stop offset="0%" stop-color="#12101a"/>
      <stop offset="100%" stop-color="#28202e"/>
    </linearGradient>
    <radialGradient id="glowL" cx="52%" cy="44%" r="60%">
      <stop offset="0%" stop-color="#bf9a63" stop-opacity="0.4"/>
      <stop offset="100%" stop-color="#493b4a" stop-opacity="0"/>
    </radialGradient>
    <radialGradient id="skinL" cx="45%" cy="36%" r="62%">
      <stop offset="0%" stop-color="#edd0b2"/>
      <stop offset="70%" stop-color="#d5a882"/>
      <stop offset="100%" stop-color="#b88663"/>
    </radialGradient>
    <linearGradient id="clothL" x1="0" y1="0" x2="0" y2="1">
      <stop offset="0%" stop-color="#3b3343"/>
      <stop offset="100%" stop-color="#211b2d"/>
    </linearGradient>
    <linearGradient id="frameL" x1="0" y1="0" x2="1" y2="1">
      <stop offset="0%" stop-color="#ae8f58"/>
      <stop offset="50%" stop-color="#81663a"/>
      <stop offset="100%" stop-color="#bfa56f"/>
    </linearGradient>
    <filter id="canvasL" x="-20%" y="-20%" width="140%" height="140%">
      <feTurbulence type="fractalNoise" baseFrequency="0.9" numOctaves="2" seed="12" result="noise"/>
      <feColorMatrix in="noise" type="matrix" values="1 0 0 0 0  0 1 0 0 0  0 0 1 0 0  0 0 0 0.08 0" result="grain"/>
      <feBlend in="SourceGraphic" in2="grain" mode="multiply"/>
    </linearGradient>
    <filter id="softL">
      <feGaussianBlur stdDeviation="0.7"/>
    </filter>
    <filter id="vignetteL">
      <feGaussianBlur stdDeviation="8"/>
    </filter>
  </defs>
  <g filter="url(#canvasL)">
    <rect width="256" height="256" fill="url(#bgL)"/>
    <rect x="16" y="16" width="224" height="224" rx="3" fill="none" stroke="url(#frameL)" stroke-width="6"/>
    <rect x="24" y="24" width="208" height="208" rx="2" fill="#0f0d15" opacity="0.47"/>
    <circle cx="128" cy="106" r="90" fill="url(#glowL)"/>
    <ellipse cx="128" cy="120" rx="55" ry="63" fill="url(#skinL)"/>
    <rect x="86" y="38" width="84" height="15" rx="4" fill="#1d1b28"/>
    <rect x="98" y="16" width="60" height="24" rx="5" fill="#1d1b28"/>
    <path d="M82 97c4-38 21-64 46-64s42 26 46 64l-12 4c-4-24-14-40-34-40s-30 16-34 40l-12-4z" fill="#252232"/>
    <path d="M96 149h64v22c0 23-14 40-32 40s-32-17-32-40v-22z" fill="url(#clothL)"/>
    <path d="M89 199h78v39h-78z" fill="#eee5d5"/>
    <ellipse cx="110" cy="120" rx="4.6" ry="4.2" fill="#221e24"/>
    <ellipse cx="146" cy="120" rx="4.6" ry="4.2" fill="#221e24"/>
    <path d="M114 145c8 7 20 7 28 0" stroke="#7f523d" stroke-width="3.4" fill="none" stroke-linecap="round"/>
    <path d="M101 158c6 18 16 25 27 25s21-7 27-25" fill="none" stroke="#191722" stroke-width="5" stroke-linecap="round"/>
    <ellipse cx="101" cy="136" rx="6" ry="3.5" fill="#c38161" opacity="0.35" filter="url(#softL)"/>
    <ellipse cx="155" cy="136" rx="6" ry="3.5" fill="#c38161" opacity="0.35" filter="url(#softL)"/>
    <rect x="10" y="10" width="236" height="236" fill="none" stroke="#000000" stroke-opacity="0.24" stroke-width="10" filter="url(#vignetteL)"/>
  </g>
  <text x="128" y="246" text-anchor="middle" fill="#e5d5b0" font-family="IBM Plex Sans, Arial, sans-serif" font-size="15" font-weight="600">Abraham Lincoln</text>
</svg>
