<svg xmlns="http://www.w3.org/2000/svg" viewBox="0 0 256 256">
  <defs>
    <linearGradient id="bgF" x1="0" y1="0" x2="0" y2="1">
      <stop offset="0%" stop-color="#13101a"/>
      <stop offset="100%" stop-color="#2c2436"/>
    </linearGradient>
    <radialGradient id="glowF" cx="50%" cy="44%" r="60%">
      <stop offset="0%" stop-color="#c8a66e" stop-opacity="0.42"/>
      <stop offset="100%" stop-color="#4c3d4d" stop-opacity="0"/>
    </radialGradient>
    <radialGradient id="skinF" cx="46%" cy="36%" r="64%">
      <stop offset="0%" stop-color="#f0d2b7"/>
      <stop offset="72%" stop-color="#daaf8d"/>
      <stop offset="100%" stop-color="#bb8f6f"/>
    </radialGradient>
    <linearGradient id="coatF" x1="0" y1="0" x2="0" y2="1">
      <stop offset="0%" stop-color="#3c3650"/>
      <stop offset="100%" stop-color="#25203a"/>
    </linearGradient>
    <linearGradient id="frameF" x1="0" y1="0" x2="1" y2="1">
      <stop offset="0%" stop-color="#b4955f"/>
      <stop offset="50%" stop-color="#82663d"/>
      <stop offset="100%" stop-color="#c4aa74"/>
    </linearGradient>
    <filter id="canvasF" x="-20%" y="-20%" width="140%" height="140%">
      <feTurbulence type="fractalNoise" baseFrequency="0.88" numOctaves="2" seed="17" result="noise"/>
      <feColorMatrix in="noise" type="matrix" values="1 0 0 0 0  0 1 0 0 0  0 0 1 0 0  0 0 0 0.08 0" result="grain"/>
      <feBlend in="SourceGraphic" in2="grain" mode="multiply"/>
    </linearGradient>
    <filter id="softF">
      <feGaussianBlur stdDeviation="0.7"/>
    </filter>
    <filter id="vignetteF">
      <feGaussianBlur stdDeviation="8"/>
    </filter>
  </defs>
  <g filter="url(#canvasF)">
    <rect width="256" height="256" fill="url(#bgF)"/>
    <rect x="16" y="16" width="224" height="224" rx="3" fill="none" stroke="url(#frameF)" stroke-width="6"/>
    <rect x="24" y="24" width="208" height="208" rx="2" fill="#100d17" opacity="0.46"/>
    <circle cx="128" cy="108" r="92" fill="url(#glowF)"/>
    <ellipse cx="128" cy="124" rx="57" ry="66" fill="url(#skinF)"/>
    <path d="M72 116c0-42 25-70 56-70s56 28 56 70v12h-18v-10c0-30-14-48-38-48s-38 18-38 48v10H72v-12z" fill="#ece4d8"/>
    <path d="M92 85c10-17 23-25 36-25s26 8 36 25l-8 8c-8-11-17-16-28-16s-20 5-28 16l-8-8z" fill="#d4c8b8"/>
    <rect x="87" y="102" width="35" height="22" rx="6" fill="none" stroke="#cfb896" stroke-width="4"/>
    <rect x="134" y="102" width="35" height="22" rx="6" fill="none" stroke="#cfb896" stroke-width="4"/>
    <rect x="121" y="111" width="14" height="4" fill="#cfb896"/>
    <path d="M89 178h78v52c0 7-6 13-13 13h-52c-7 0-13-6-13-13v-52z" fill="url(#coatF)"/>
    <path d="M84 208h88v31h-88z" fill="#ede4d3"/>
    <ellipse cx="107" cy="117" rx="4.2" ry="3.8" fill="#211d22"/>
    <ellipse cx="149" cy="117" rx="4.2" ry="3.8" fill="#211d22"/>
    <path d="M113 146c9 7 21 7 30 0" stroke="#81543f" stroke-width="3.4" fill="none" stroke-linecap="round"/>
    <ellipse cx="101" cy="138" rx="6" ry="3.5" fill="#c58263" opacity="0.35" filter="url(#softF)"/>
    <ellipse cx="155" cy="138" rx="6" ry="3.5" fill="#c58263" opacity="0.35" filter="url(#softF)"/>
    <rect x="10" y="10" width="236" height="236" fill="none" stroke="#000000" stroke-opacity="0.24" stroke-width="10" filter="url(#vignetteF)"/>
  </g>
  <text x="128" y="246" text-anchor="middle" fill="#e5d5b0" font-family="IBM Plex Sans, Arial, sans-serif" font-size="15" font-weight="600">Benjamin Franklin</text>
</svg>
