<svg xmlns="http://www.w3.org/2000/svg" viewBox="0 0 256 256">
  <defs>
    <linearGradient id="bgW" x1="0" y1="0" x2="0" y2="1">
      <stop offset="0%" stop-color="#14111c"/>
      <stop offset="100%" stop-color="#2a2234"/>
    </linearGradient>
    <radialGradient id="glowW" cx="50%" cy="44%" r="58%">
      <stop offset="0%" stop-color="#d6b07b" stop-opacity="0.46"/>
      <stop offset="100%" stop-color="#4d3e4f" stop-opacity="0"/>
    </radialGradient>
    <radialGradient id="skinW" cx="45%" cy="35%" r="66%">
      <stop offset="0%" stop-color="#f2d8bf"/>
      <stop offset="68%" stop-color="#ddb493"/>
      <stop offset="100%" stop-color="#bc8e70"/>
    </radialGradient>
    <linearGradient id="hairW" x1="0" y1="0" x2="1" y2="1">
      <stop offset="0%" stop-color="#f8f4e9"/>
      <stop offset="100%" stop-color="#cac2b4"/>
    </linearGradient>
    <linearGradient id="coatW" x1="0" y1="0" x2="0" y2="1">
      <stop offset="0%" stop-color="#3f2f47"/>
      <stop offset="100%" stop-color="#251d33"/>
    </linearGradient>
    <linearGradient id="frameW" x1="0" y1="0" x2="1" y2="1">
      <stop offset="0%" stop-color="#b49358"/>
      <stop offset="50%" stop-color="#8d6f40"/>
      <stop offset="100%" stop-color="#c5ab72"/>
    </linearGradient>
    <filter id="canvasW" x="-20%" y="-20%" width="140%" height="140%">
      <feTurbulence type="fractalNoise" baseFrequency="0.85" numOctaves="2" seed="9" result="noise"/>
      <feColorMatrix in="noise" type="matrix" values="1 0 0 0 0  0 1 0 0 0  0 0 1 0 0  0 0 0 0.075 0" result="grain"/>
      <feBlend in="SourceGraphic" in2="grain" mode="multiply"/>
    </filter>
    <filter id="softW">
      <feGaussianBlur stdDeviation="0.7"/>
    </filter>
    <filter id="vignetteW">
      <feGaussianBlur stdDeviation="8"/>
    </filter>
  </defs>
  <g filter="url(#canvasW)">
    <rect width="256" height="256" fill="url(#bgW)"/>
    <rect x="16" y="16" width="224" height="224" rx="3" fill="none" stroke="url(#frameW)" stroke-width="6"/>
    <rect x="24" y="24" width="208" height="208" rx="2" fill="#0f0d16" opacity="0.45"/>
    <circle cx="128" cy="112" r="92" fill="url(#glowW)"/>
    <ellipse cx="128" cy="125" rx="60" ry="68" fill="url(#skinW)"/>
    <path d="M73 116c0-47 25-82 55-82s55 35 55 82v16h-19v-13c0-33-15-53-36-53s-36 20-36 53v13H73v-16z" fill="url(#hairW)"/>
    <path d="M55 96c13-31 37-50 73-50s60 19 73 50l-14 13c-12-20-31-31-59-31s-47 11-59 31L55 96z" fill="#f8f4e8"/>
    <path d="M94 178h68v54c0 8-6 14-14 14h-40c-8 0-14-6-14-14v-54z" fill="url(#coatW)"/>
    <path d="M83 206h90v33h-90z" fill="#efe8d9"/>
    <path d="M118 173c3 4 8 7 10 7s7-3 10-7l2 35h-24z" fill="#eee6d8"/>
    <ellipse cx="107" cy="125" rx="5.1" ry="4.2" fill="#201c20"/>
    <ellipse cx="149" cy="125" rx="5.1" ry="4.2" fill="#201c20"/>
    <path d="M112 150c11 9 21 9 32 0" stroke="#85563f" stroke-width="3.5" fill="none" stroke-linecap="round"/>
    <ellipse cx="102" cy="140" rx="7" ry="4" fill="#c88d70" opacity="0.35" filter="url(#softW)"/>
    <ellipse cx="154" cy="140" rx="7" ry="4" fill="#c88d70" opacity="0.35" filter="url(#softW)"/>
    <rect x="10" y="10" width="236" height="236" fill="none" stroke="#000000" stroke-opacity="0.24" stroke-width="10" filter="url(#vignetteW)"/>
  </g>
  <text x="128" y="246" text-anchor="middle" fill="#e5d5b0" font-family="IBM Plex Sans, Arial, sans-serif" font-size="15" font-weight="600">George Washington</text>
</svg>
